<svg width="600" height="600" viewBox="0 0 600 600" fill="none" xmlns="http://www.w3.org/2000/svg">
<rect width="600" height="600" rx="49" fill="#34D491"/>
<path d="M150.8 587.8C124.4 587.8 101.2 581.933 81.2 570.2C61.4667 558.2 46.1333 541.533 35.2 520.2C24.2667 498.867 18.8 473.933 18.8 445.4C18.8 417.933 24.1333 393.133 34.8 371C45.7333 348.867 61.7333 331.267 82.8 318.2C104.133 304.867 130.4 298.2 161.6 298.2C195.2 298.2 222.933 306.2 244.8 322.2C266.933 338.2 281.333 360.467 288 389H218.4C214.133 378.6 207.333 370.6 198 365C188.667 359.133 176.533 356.2 161.6 356.2C146.4 356.2 132.933 359.8 121.2 367C109.467 373.933 100.133 384.067 93.2 397.4C86.5333 410.733 83.2 427 83.2 446.2C83.2 464.867 86.5333 480.6 93.2 493.4C99.8667 506.2 108.8 515.8 120 522.2C131.467 528.6 144.133 531.8 158 531.8C178 531.8 193.6 527.533 204.8 519C216 510.2 223.733 498.867 228 485H146.8V430.6H293.2V583H235.2L230.4 552.2C222.133 563.667 211.467 572.467 198.4 578.6C185.6 584.733 169.733 587.8 150.8 587.8ZM326.8 583V303H390L509.6 479.4V303H572.8V583H509.6L390 407.4V583H326.8Z" fill="#1E1E1E"/>
</svg>
